<svg width="56" height="56" viewBox="0 0 56 56" fill="none" xmlns="http://www.w3.org/2000/svg">
<path d="M28 56C43.464 56 56 43.464 56 28C56 12.536 43.464 0 28 0C12.536 0 0 12.536 0 28C0 43.464 12.536 56 28 56Z" fill="#1B53E4"/>
<path fill-rule="evenodd" clip-rule="evenodd" d="M7 28C7 39.598 16.402 49 28 49C39.598 49 49 39.598 49 28C49 16.402 39.598 7 28 7C16.402 7 7 16.402 7 28ZM24.2338 21.2339C22.5769 21.2339 21.2338 22.577 21.2338 24.2339V31.7672C21.2338 33.4241 22.5769 34.7672 24.2338 34.7672H31.7671C33.424 34.7672 34.7671 33.4241 34.7671 31.7672V24.2339C34.7671 22.577 33.424 21.2339 31.7671 21.2339H24.2338Z" fill="white"/>
</svg>
